<?xml version="1.0" encoding="UTF-8"?>
<!-- Generator: visioncortex VTracer 0.6.4 -->
<svg version="1.1" xmlns="http://www.w3.org/2000/svg" width="272" height="272">
<path d="M0 0 C3.69731062 3.8653702 5.59424641 7.43486045 5.9375 12.8125 C5.8446875 13.8334375 5.8446875 13.8334375 5.75 14.875 C6.27207031 14.58625 6.79414062 14.2975 7.33203125 14 C17.09050272 9.07803891 25.35886944 10.52766499 35.625 13.0625 C36.44597168 13.25835693 37.26694336 13.45421387 38.11279297 13.65600586 C43.37587495 15.06493064 46.25745121 16.66838759 49.75 20.875 C45 25.75 45 25.75 42.75 26.875 C43.53375 26.71 44.3175 26.545 45.125 26.375 C49.68966142 25.74539153 54.15072601 25.79319473 58.75 25.875 C59.8125 27.75 59.8125 27.75 60.75 29.875 C60.42 30.535 60.09 31.195 59.75 31.875 C60.74 31.215 61.73 30.555 62.75 29.875 C62.37234158 27.13697645 62.00113012 26.09264611 59.875 24.25 C59.17375 23.79625 58.4725 23.3425 57.75 22.875 C56.76 22.215 55.77 21.555 54.75 20.875 C60.36455383 21.29609154 64.60205372 23.1228816 68.75 26.875 C72.99314046 32.7310837 75.86544243 38.60212714 75.75 45.875 C73.98882837 55.8791811 67.98664083 72.63835917 60.75 79.875 C64.23590522 79.57620812 65.54449067 79.08050933 68.0625 76.5625 C74.0551046 70.5698954 81.98368451 68.10947367 90.34375 67.76953125 C100.01457712 68.14469265 108.55794452 72.52201766 115.75 78.875 C122.99277684 87.90343841 126.53251638 97.30103675 125.75 108.875 C125.31147575 111.54427806 124.78211214 114.17000237 124.1875 116.80859375 C123.68095707 118.84906917 123.68095707 118.84906917 123.75 120.875 C130.43532297 117.16234926 135.23907321 114.21076936 139.13671875 107.48046875 C139.64847656 106.60003906 140.16023437 105.71960938 140.6875 104.8125 C141.15027344 103.97589844 141.61304688 103.13929688 142.08984375 102.27734375 C145.74026113 96.99497507 150.58496422 94.84149807 156.375 92.625 C157.04273438 92.356875 157.71046875 92.08875 158.3984375 91.8125 C161.32773543 90.66421521 163.57643716 89.875 166.75 89.875 C166.75 91.855 166.75 93.835 166.75 95.875 C165.94175781 96.12894531 165.13351562 96.38289063 164.30078125 96.64453125 C163.23214844 96.98871094 162.16351563 97.33289063 161.0625 97.6875 C160.00675781 98.02394531 158.95101562 98.36039062 157.86328125 98.70703125 C154.89178902 99.82180688 152.44744134 101.22630118 149.75 102.875 C149.09 102.875 148.43 102.875 147.75 102.875 C148.08 103.865 148.41 104.855 148.75 105.875 C147.53515625 107.69921875 147.53515625 107.69921875 145.8125 109.5625 C145.24660156 110.18511719 144.68070313 110.80773437 144.09765625 111.44921875 C143.65292969 111.91972656 143.20820313 112.39023438 142.75 112.875 C144.07 112.545 145.39 112.215 146.75 111.875 C143.69494701 115.13568155 140.43890746 117.61147972 136.75 120.125 C135.90211914 120.70544067 135.90211914 120.70544067 135.03710938 121.29760742 C130.19577583 124.60212722 125.30909239 127.83834194 120.40625 131.05078125 C114.97659611 134.77967591 111.53193148 138.32035819 107.9375 143.75 C104.15228104 149.23948452 100.59610512 153.48281555 94.75 156.875 C94.18539062 157.25914062 93.62078125 157.64328125 93.0390625 158.0390625 C88.00095459 161.097128 82.64561817 161.55203217 76.90112305 162.15942383 C68.55214005 163.05072233 60.97084144 164.45884655 53.75 168.875 C53.09 168.875 52.43 168.875 51.75 168.875 C51.48832031 169.56722656 51.22664062 170.25945312 50.95703125 170.97265625 C46.12100185 182.60103763 39.90619529 192.29708829 29.75 199.875 C29.09 199.875 28.43 199.875 27.75 199.875 C27.48832031 200.42285156 27.22664063 200.97070312 26.95703125 201.53515625 C25.57366745 204.21682265 24.03777207 206.75419365 22.4375 209.3125 C21.86386719 210.23933594 21.29023437 211.16617188 20.69921875 212.12109375 C15.995384 218.76679215 12.0674811 220.75828534 4.4375 222.75 C-4.49850984 225.32730488 -10.43374825 228.0345673 -15.25 236.3125 C-15.58 237.158125 -15.91 238.00375 -16.25 238.875 C-16.91 238.545 -17.57 238.215 -18.25 237.875 C-14.91339633 230.32373906 -9.6565031 225.37123749 -2.25 221.875 C1.30568203 220.78094399 4.86253162 219.83043621 8.48046875 218.96484375 C14.33319877 217.01393374 17.1641512 213.69645293 20.25 208.5 C23.86633617 202.63609145 27.43203048 197.94645396 32.6875 193.4375 C39.9674864 187.1390848 43.98448039 180.84040672 47.94140625 172.08203125 C50.54807571 167.45983767 53.95801636 165.00477051 58.75 162.875 C56.77 162.545 54.79 162.215 52.75 161.875 C52.75 161.545 52.75 161.215 52.75 160.875 C54.73 160.875 56.71 160.875 58.75 160.875 C58.75 160.215 58.75 159.555 58.75 158.875 C50.28677411 159.61314602 44.41799046 160.34014041 38.75 166.875 C38.06808594 167.56851563 37.38617188 168.26203125 36.68359375 168.9765625 C30.47335956 175.78081909 26.87216557 183.31451011 23.19995117 191.70141602 C22.80783447 192.58369873 22.41571777 193.46598145 22.01171875 194.375 C21.50064575 195.56609375 21.50064575 195.56609375 20.97924805 196.78125 C19.57082896 199.18017792 18.05847775 200.36128387 15.75 201.875 C16.018125 201.359375 16.28625 200.84375 16.5625 200.3125 C18.07349407 197.21098585 19.40572726 194.05237194 20.75 190.875 C19.80382812 191.74898437 18.85765625 192.62296875 17.8828125 193.5234375 C13.51282959 197.26882295 8.70557265 199.84339333 3.625 202.5 C-6.91342524 207.4970814 -6.91342524 207.4970814 -13.25 216.6875 C-16.00522652 222.7117895 -20.32719817 224.56983247 -26.19140625 227.20703125 C-29.52354365 229.02417387 -31.07306627 230.8095219 -33.25 233.875 C-33.91 234.535 -34.57 235.195 -35.25 235.875 C-35.25 231.1101905 -33.67280484 228.93480968 -30.4375 225.6875 C-28.38398021 223.73415191 -26.41521566 221.98672007 -24.06640625 220.3984375 C-21.88325329 218.56740598 -21.54276381 217.44654937 -21 214.6875 C-20.7525 213.429375 -20.505 212.17125 -20.25 210.875 C-20.85585937 211.20113281 -21.46171875 211.52726563 -22.0859375 211.86328125 C-27.31394578 214.58988864 -32.30001808 216.66604688 -38.0234375 218.1015625 C-40.52360946 218.97004329 -42.21997116 220.19721361 -44.25 221.875 C-42.52137715 217.31772158 -39.43330285 215.96665143 -35.25 213.875 C-40.55363934 214.39242823 -43.76475883 216.20110623 -48.25 218.875 C-48.91 218.875 -49.57 218.875 -50.25 218.875 C-50.4975 219.56078125 -50.745 220.2465625 -51 220.953125 C-52.46190341 224.37032423 -54.29630735 227.47502454 -56.25 230.625 C-56.60578125 231.21410156 -56.9615625 231.80320312 -57.328125 232.41015625 C-60.00269934 236.75134967 -60.00269934 236.75134967 -62.25 237.875 C-62.25 237.215 -62.25 236.555 -62.25 235.875 C-63.87580966 235.98898665 -65.50067157 236.11655659 -67.125 236.25 C-68.02992187 236.31960938 -68.93484375 236.38921875 -69.8671875 236.4609375 C-72.42941903 236.67068132 -72.42941903 236.67068132 -74.25 238.875 C-76.93839385 239.14491906 -79.54141936 238.96237357 -82.25 238.875 C-81.31725891 237.74605124 -80.37859878 236.62199124 -79.4375 235.5 C-78.91542969 234.87351562 -78.39335938 234.24703125 -77.85546875 233.6015625 C-75.7404392 231.32700517 -74.15656197 229.91400869 -70.98046875 229.77734375 C-69.72169922 229.79474609 -69.72169922 229.79474609 -68.4375 229.8125 C-65.17589098 229.55650162 -63.75279239 229.38862843 -61.4375 227.0234375 C-59.93699865 224.68671926 -58.57243659 222.31642139 -57.25 219.875 C-53.0271571 213.54073565 -47.44613114 210.33116452 -40.25 207.875 C-37.11625959 207.6083809 -34.16761427 207.67757547 -31.03125 207.86328125 C-26.89388885 207.88071395 -23.9750669 206.59426165 -20.25 204.875 C-21.01183594 204.65585938 -21.77367187 204.43671875 -22.55859375 204.2109375 C-33.58694815 200.82395225 -42.38442019 196.00035771 -48.43359375 185.8984375 C-54.21769343 174.92347914 -55.74046278 162.81514742 -52.25 150.875 C-47.10926566 137.67529491 -38.87898248 131.29590983 -26.25 125.5 C-22.55081301 123.875 -22.55081301 123.875 -20.25 123.875 C-19.78662003 118.77782032 -19.9672369 115.88525173 -22.6875 111.5 C-25.63613052 106.7272167 -26.12284599 102.41197925 -26.25 96.875 C-28.60367713 96.1871764 -28.60367713 96.1871764 -31.25 95.875 C-32.24 96.535 -33.23 97.195 -34.25 97.875 C-36.375 95.25 -36.375 95.25 -38.25 91.875 C-37.79135612 87.56374756 -36.03520053 85.54954701 -32.9609375 82.74609375 C-29.03587955 78.89790847 -26.66526902 74.74073422 -24.1875 69.875 C-21.40756167 64.46931241 -18.63715532 59.80685238 -14.44995117 55.36450195 C-12.59990599 53.06803692 -12.58979905 50.76329196 -12.25 47.875 C-9.13732394 38.76232394 -9.13732394 38.76232394 -6.25 35.875 C-7.35408203 36.21917969 -7.35408203 36.21917969 -8.48046875 36.5703125 C-11.25 36.875 -11.25 36.875 -13.48828125 35.6171875 C-14.51501953 34.69292969 -14.51501953 34.69292969 -15.5625 33.75 C-16.25988281 33.14929688 -16.95726563 32.54859375 -17.67578125 31.9296875 C-19.61408499 29.3997923 -19.5676955 27.98733899 -19.25 24.875 C-22.69175522 22.72800031 -25.0220292 22.77643205 -29 23.25 C-29.98484375 23.36085938 -30.9696875 23.47171875 -31.984375 23.5859375 C-32.73203125 23.68132813 -33.4796875 23.77671875 -34.25 23.875 C-30.69463878 14.4055989 -25.36178284 3.91674589 -16.27734375 -1.24609375 C-10.27776967 -3.84706517 -5.58291835 -3.65036969 0 0 Z M-24.25 7.875 C-23.92 8.535 -23.59 9.195 -23.25 9.875 C-21.93 9.215 -20.61 8.555 -19.25 7.875 C-19.58 8.865 -19.91 9.855 -20.25 10.875 C-18.27 10.545 -16.29 10.215 -14.25 9.875 C-15.95625501 12.65888975 -16.72626739 13.72884206 -19.9375 14.625 C-20.700625 14.7075 -21.46375 14.79 -22.25 14.875 C-22.25 14.215 -22.25 13.555 -22.25 12.875 C-22.91 12.875 -23.57 12.875 -24.25 12.875 C-24.25 13.535 -24.25 14.195 -24.25 14.875 C-25.24 14.545 -26.23 14.215 -27.25 13.875 C-28.2709375 15.545625 -28.2709375 15.545625 -29.3125 17.25 C-29.69535156 17.87648438 -30.07820313 18.50296875 -30.47265625 19.1484375 C-30.72917969 19.71820313 -30.98570313 20.28796875 -31.25 20.875 C-30.92 21.535 -30.59 22.195 -30.25 22.875 C-29.280625 22.400625 -28.31125 21.92625 -27.3125 21.4375 C-23.05163851 19.58647001 -18.84984394 19.17748407 -14.25 18.875 C-13.96125 17.905625 -13.6725 16.93625 -13.375 15.9375 C-12.25 12.875 -12.25 12.875 -10.25 11.875 C-10.91 13.855 -11.57 15.835 -12.25 17.875 C-10.27 16.885 -8.29 15.895 -6.25 14.875 C-6.25 14.215 -6.25 13.555 -6.25 12.875 C-3.12709365 13.36078543 -0.25419641 13.8736012 2.75 14.875 C3.90837626 10.82068308 3.58691257 8.65687881 1.75 4.875 C0.76 5.865 -0.23 6.855 -1.25 7.875 C-0.92 5.895 -0.59 3.915 -0.25 1.875 C-1.57 1.215 -2.89 0.555 -4.25 -0.125 C-3.92 1.855 -3.59 3.835 -3.25 5.875 C-5.23 6.205 -7.21 6.535 -9.25 6.875 C-8.569375 6.111875 -7.88875 5.34875 -7.1875 4.5625 C-6.548125 3.675625 -5.90875 2.78875 -5.25 1.875 C-5.58 0.885 -5.91 -0.105 -6.25 -1.125 C-14.21483796 -1.90205736 -19.18589 2.35051636 -24.25 7.875 Z M-9.25 18.875 C-9.25 19.535 -9.25 20.195 -9.25 20.875 C-8.59 20.545 -7.93 20.215 -7.25 19.875 C-7.91 19.545 -8.57 19.215 -9.25 18.875 Z M11.75 19.875 C9.26101346 27.34195963 11.47738648 35.31885725 12.75 42.875 C13.74 43.205 14.73 43.535 15.75 43.875 C16.183125 42.451875 16.183125 42.451875 16.625 41 C17.75 37.875 17.75 37.875 19.75 35.875 C18.1 35.875 16.45 35.875 14.75 35.875 C15.08 34.555 15.41 33.235 15.75 31.875 C15.09 31.875 14.43 31.875 13.75 31.875 C13.42 27.915 13.09 23.955 12.75 19.875 C12.42 19.875 12.09 19.875 11.75 19.875 Z M-2.25 20.875 C-1.25 22.875 -1.25 22.875 -1.25 22.875 Z M-5.25 22.875 C-5.25 23.535 -5.25 24.195 -5.25 24.875 C-4.59 24.545 -3.93 24.215 -3.25 23.875 C-3.91 23.545 -4.57 23.215 -5.25 22.875 Z M-4.25 29.875 C-3.25 31.875 -3.25 31.875 -3.25 31.875 Z M28.75 31.875 C29.75 33.875 29.75 33.875 29.75 33.875 Z M54.3762207 45.03491211 C49.2269223 50.75256941 47.29631819 56.95936244 45.09179688 64.22460938 C42.67049723 71.34517556 39.39797431 74.42404108 32.75 77.875 C33.41 78.205 34.07 78.535 34.75 78.875 C37.28334073 77.90805288 37.28334073 77.90805288 40.0625 76.5 C43.6458886 74.74985932 46.80129394 73.49355869 50.75 72.875 C50.75 72.545 50.75 72.215 50.75 71.875 C48.77 71.875 46.79 71.875 44.75 71.875 C45.96176867 68.51429532 47.19752231 65.16288855 48.4375 61.8125 C48.77716797 60.86955078 49.11683594 59.92660156 49.46679688 58.95507812 C51.59865409 53.23691905 53.95748694 48.66379495 57.75 43.875 C55.70503175 43.65995793 55.70503175 43.65995793 54.3762207 45.03491211 Z M3.87109375 46.8828125 C1.79050324 49.81786283 -0.1502319 52.80164083 -2.05566406 55.85180664 C-6.86264213 63.54212226 -11.94120053 70.3294726 -18.25 76.875 C-19.61277302 78.40906427 -20.96758873 79.95025255 -22.3125 81.5 C-23.16521484 82.47839844 -23.16521484 82.47839844 -24.03515625 83.4765625 C-24.43605469 83.93804687 -24.83695313 84.39953125 -25.25 84.875 C-24.26 85.535 -23.27 86.195 -22.25 86.875 C-19.53775382 85.26231308 -16.87647188 83.62598126 -14.25 81.875 C-14.25 81.215 -14.25 80.555 -14.25 79.875 C-13.63125 79.58625 -13.0125 79.2975 -12.375 79 C-9.60685838 77.53451326 -8.4590313 76.45990409 -7.3984375 73.4921875 C-6.03418278 70.38317164 -4.54457913 69.06648484 -1.875 67 C-0.71871094 66.07574219 -0.71871094 66.07574219 0.4609375 65.1328125 C2.75 63.875 2.75 63.875 5.0390625 64.1796875 C5.60367188 64.40914062 6.16828125 64.63859375 6.75 64.875 C7.28625 63.740625 7.8225 62.60625 8.375 61.4375 C10.76204641 56.63764769 13.69668617 52.27177191 16.75 47.875 C15.43 47.875 14.11 47.875 12.75 47.875 C12.255 46.39 12.255 46.39 11.75 44.875 C7.28784404 44.30118588 7.28784404 44.30118588 3.87109375 46.8828125 Z M27.5 48.6875 C26.56644322 49.73519068 25.6529611 50.8008281 24.75 51.875 C19.95680469 57.41339458 15.40336518 62.3387557 9.4140625 66.57421875 C7.11404783 68.37211754 5.87766661 70.19679179 4.75 72.875 C4.75 74.195 4.75 75.515 4.75 76.875 C2.41828273 78.13054007 0.2153288 79.04958651 -2.3125 79.875 C-5.38855048 80.78177956 -5.38855048 80.78177956 -8.25 82.875 C-9.24 83.535 -10.23 84.195 -11.25 84.875 C-10.92 87.515 -10.59 90.155 -10.25 92.875 C-1.95113007 94.27552742 6.33174935 95.29459467 14.70458984 96.11572266 C20.59657771 96.7078882 26.36668547 97.58069681 32.18359375 98.703125 C35.0477416 98.89494008 36.35526155 98.39223382 38.75 96.875 C38.75 96.545 38.75 96.215 38.75 95.875 C37.33847656 95.97554687 37.33847656 95.97554687 35.8984375 96.078125 C31.89256419 96.1278874 28.61388761 95.96426465 24.75 94.875 C20.61230941 90.39308727 18.96453474 85.32069607 18.4375 79.3125 C21.70768719 70.74772402 27.67530684 63.45683184 33.1484375 56.1875 C34.9018209 53.886485 34.9018209 53.886485 35.75 50.875 C36.966875 50.91625 38.18375 50.9575 39.4375 51 C42.96894127 51.01254508 45.55003566 50.47498217 48.75 48.875 C48.75 48.215 48.75 47.555 48.75 46.875 C47.7909375 47.1225 47.7909375 47.1225 46.8125 47.375 C41.87518709 48.1810919 36.82818084 48.48900798 32 47.0625 C29.5631698 46.5989464 29.5631698 46.5989464 27.5 48.6875 Z M69.75 85.875 C70.34834725 90.01798667 71.75664285 93.05694377 73.8125 96.6875 C74.36035156 97.66332031 74.90820312 98.63914062 75.47265625 99.64453125 C75.89417969 100.38058594 76.31570312 101.11664063 76.75 101.875 C78.4 101.875 80.05 101.875 81.75 101.875 C82.08 100.225 82.41 98.575 82.75 96.875 C91.17464637 94.2196126 91.17464637 94.2196126 95.6875 96 C99.93072289 98.59789157 99.93072289 98.59789157 100.75 101.875 C101.185879 105.23749517 101.48146805 107.71025819 99.62890625 110.66015625 C98.40554289 112.12611291 97.08335003 113.50831622 95.75 114.875 C97.73 115.865 99.71 116.855 101.75 117.875 C101.47485352 119.76855469 101.47485352 119.76855469 100.75 121.875 C98.03555039 123.16001632 95.51555462 124.17829 92.6875 125.125 C91.92888672 125.393125 91.17027344 125.66125 90.38867188 125.9375 C88.51411958 126.59771967 86.63265428 127.23825109 84.75 127.875 C87.63019276 126.40847983 90.54308515 125.05452126 93.5 123.75 C94.29921875 123.39679688 95.0984375 123.04359375 95.921875 122.6796875 C96.52515625 122.41414063 97.1284375 122.14859375 97.75 121.875 C95.93777466 119.8125006 95.93777466 119.8125006 93.75 117.875 C92.76 117.875 91.77 117.875 90.75 117.875 C90.255 115.895 90.255 115.895 89.75 113.875 C89.42 114.865 89.09 115.855 88.75 116.875 C87.62267591 120.25697228 86.60817627 121.11557814 83.9375 123.375 C83.25042969 123.9628125 82.56335938 124.550625 81.85546875 125.15625 C75.2752365 130.52786816 69.02792744 131.84025907 60.75 132.875 C60.42 133.865 60.09 134.855 59.75 135.875 C61.73 135.875 63.71 135.875 65.75 135.875 C55.0802094 139.60731806 55.0802094 139.60731806 49.75 137.875 C49.09 137.215 48.43 136.555 47.75 135.875 C45.34329805 135.81649562 45.34329805 135.81649562 42.625 136.1875 C41.63628906 136.29320312 40.64757812 136.39890625 39.62890625 136.5078125 C37.92466272 136.7251787 36.22241818 136.96215763 34.52734375 137.2421875 C29.31258686 138.09230691 25.71930807 137.38353995 20.75 135.875 C21.08 134.225 21.41 132.575 21.75 130.875 C23.73 130.215 25.71 129.555 27.75 128.875 C26.51220857 125.16162572 25.47749117 124.80806841 22.1875 122.8125 C20.71023437 121.90564453 20.71023437 121.90564453 19.203125 120.98046875 C18.65591797 120.64837402 18.10871094 120.3162793 17.54492188 119.97412109 C15.57527738 118.76800854 13.62287739 117.53681153 11.671875 116.30078125 C10.26045082 115.40880013 8.84899267 114.51687275 7.4375 113.625 C6.768396 113.20081787 6.09929199 112.77663574 5.40991211 112.33959961 C-1.00708982 107.83666289 -1.00708982 107.83666289 -8.25 105.875 C-8.27696009 108.6458983 -8.29681952 111.4165345 -8.3125 114.1875 C-8.32087891 114.97318359 -8.32925781 115.75886719 -8.33789062 116.56835938 C-8.34111328 117.32568359 -8.34433594 118.08300781 -8.34765625 118.86328125 C-8.35289307 119.55977783 -8.35812988 120.25627441 -8.36352539 120.97387695 C-8.31895991 123.09997968 -8.31895991 123.09997968 -7.25 125.875 C-4.41944799 127.43847245 -1.56435867 128.77302599 1.3828125 130.09375 C10.30209961 134.27113763 15.99036859 141.94171652 19.75 150.875 C23.1127248 160.26418106 22.2969565 170.36227092 19.75 179.875 C18.0625 182.9375 18.0625 182.9375 16.75 184.875 C17.245 185.865 17.245 185.865 17.75 186.875 C18.1625 186.28074219 18.575 185.68648438 19 185.07421875 C23.50109116 178.61394729 28.03632177 172.18244238 32.75 165.875 C33.2759375 165.16730469 33.801875 164.45960938 34.34375 163.73046875 C38.58274288 158.37535807 43.05876502 156.29435287 49.75 154.875 C51.20614878 154.78498353 52.66608053 154.74488098 54.125 154.75 C55.21941406 154.74613281 55.21941406 154.74613281 56.3359375 154.7421875 C58.75 154.875 58.75 154.875 61.67578125 155.57421875 C65.64671146 155.96273416 67.21761786 154.92152207 70.5625 152.8125 C71.59503906 152.16796875 72.62757813 151.5234375 73.69140625 150.859375 C75.20541016 149.87710938 75.20541016 149.87710938 76.75 148.875 C77.66652344 148.30265625 78.58304687 147.7303125 79.52734375 147.140625 C82.72489197 145.12731625 82.72489197 145.12731625 85.75 142.875 C85.75 142.215 85.75 141.555 85.75 140.875 C80.44905784 139.07195845 75.14691512 137.36776376 69.75 135.875 C69.75 135.215 69.75 134.555 69.75 133.875 C75.95574628 131.72198598 80.39920718 131.75806906 86.75 133.875 C94.60807117 134.83753482 100.49797661 132.78507274 106.953125 128.3671875 C112.00136859 124.34728983 115.29024991 120.22491289 116.75 113.875 C117.93547569 102.51419129 116.61611693 94.45357516 109.5 85.5625 C104.145137 79.78155113 97.78246423 77.14383095 90 76.625 C81.73734889 76.77801206 75.96549463 80.76705362 69.75 85.875 Z M35.75 81.875 C34.49044769 85.65365693 35.26912811 86.90911786 36.6875 90.5625 C37.06777344 91.55636719 37.44804687 92.55023438 37.83984375 93.57421875 C38.14019531 94.33347656 38.44054687 95.09273437 38.75 95.875 C39.74 95.545 40.73 95.215 41.75 94.875 C41.75 90.585 41.75 86.295 41.75 81.875 C39.77 81.875 37.79 81.875 35.75 81.875 Z M-23.25 89.875 C-24.28013277 91.52321244 -25.28114628 93.19003702 -26.25 94.875 C-25.26 94.545 -24.27 94.215 -23.25 93.875 C-22.51676204 91.85991642 -22.51676204 91.85991642 -22.25 89.875 C-22.58 89.875 -22.91 89.875 -23.25 89.875 Z M47.75 89.875 C47.75 95.155 47.75 100.435 47.75 105.875 C55.67 105.38 55.67 105.38 63.75 104.875 C63.75 103.885 63.75 102.895 63.75 101.875 C61.11 102.205 58.47 102.535 55.75 102.875 C56.08 100.565 56.41 98.255 56.75 95.875 C55.43969568 94.87212471 54.12669473 93.87277175 52.8125 92.875 C52.08160156 92.318125 51.35070312 91.76125 50.59765625 91.1875 C48.99185632 89.77848055 48.99185632 89.77848055 47.75 89.875 Z M-21.4375 92.6875 C-23.56900893 94.78653919 -23.56900893 94.78653919 -23.25 97.875 C-21.27 98.535 -19.29 99.195 -17.25 99.875 C-16.33941469 96.80177456 -16.16113816 94.07402639 -16.25 90.875 C-19.33846081 90.55599107 -19.33846081 90.55599107 -21.4375 92.6875 Z M90.75 96.875 C90.75 97.535 90.75 98.195 90.75 98.875 C91.7090625 99.2153125 91.7090625 99.2153125 92.6875 99.5625 C94.75 100.875 94.75 100.875 95.5625 103.375 C95.75 105.875 95.75 105.875 94.75 107.875 C93.10636866 108.59659424 91.43949614 109.26851421 89.75 109.875 C90.08 110.535 90.41 111.195 90.75 111.875 C93.68443402 111.60843428 93.68443402 111.60843428 96.75 110.875 C99.23038907 107.1544164 99.21337203 105.27703429 98.75 100.875 C97.14450853 98.35188989 97.14450853 98.35188989 94.75 96.875 C93.43 96.875 92.11 96.875 90.75 96.875 Z M-24.25 98.875 C-25.35652097 102.19456291 -25.20237748 102.76296417 -24 105.875 C-23.74734375 106.555625 -23.4946875 107.23625 -23.234375 107.9375 C-22.17652842 110.01961073 -20.97779885 111.32192239 -19.25 112.875 C-16.91856382 109.23213096 -16.70873222 106.12781824 -17.25 101.875 C-19.64740918 99.91921883 -21.12586608 98.875 -24.25 98.875 Z M-0.25 99.875 C2.4167677 102.67692847 5.0832444 104.92285474 8.3125 107.046875 C9.18688721 107.62550293 10.06127441 108.20413086 10.9621582 108.80029297 C11.882146 109.40244629 12.80213379 110.00459961 13.75 110.625 C14.68739014 111.24391113 15.62478027 111.86282227 16.59057617 112.50048828 C18.45424727 113.73091996 20.31904977 114.95963992 22.18505859 116.18652344 C25.48709835 118.36022484 28.77559791 120.5534834 32.0625 122.75 C32.98675781 123.36617187 33.91101563 123.98234375 34.86328125 124.6171875 C35.48589844 125.03226563 36.10851562 125.44734375 36.75 125.875 C37.41 125.545 38.07 125.215 38.75 124.875 C37.76 124.545 36.77 124.215 35.75 123.875 C34.9765625 121.72265625 34.9765625 121.72265625 34.375 118.9375 C32.98319378 113.27403318 31.00437435 106.12937435 26.75 101.875 C24.10187408 101.46598844 21.47318316 101.11559801 18.8125 100.8125 C18.04429932 100.72307129 17.27609863 100.63364258 16.48461914 100.54150391 C10.87317833 99.92161828 5.39861616 99.69567885 -0.25 99.875 Z M40.75 102.875 C40.42 103.865 40.09 104.855 39.75 105.875 C38.12667033 107.26076923 36.46275535 108.60141268 34.75 109.875 C35.30619669 114.5639493 36.63182673 118.07424267 38.8125 122.25 C39.63427734 123.83941406 39.63427734 123.83941406 40.47265625 125.4609375 C40.89417969 126.25757813 41.31570312 127.05421875 41.75 127.875 C42.74 127.545 43.73 127.215 44.75 126.875 C44.14929688 125.91078125 43.54859375 124.9465625 42.9296875 123.953125 C42.16061558 122.67759108 41.39243231 121.40152107 40.625 120.125 C40.22667969 119.49078125 39.82835937 118.8565625 39.41796875 118.203125 C38.3046875 116.328125 38.3046875 116.328125 36.75 112.875 C37.53750968 109.88246322 38.21824169 109.18779901 40.875 107.625 C41.49375 107.3775 42.1125 107.13 42.75 106.875 C42.75 105.555 42.75 104.235 42.75 102.875 C42.09 102.875 41.43 102.875 40.75 102.875 Z M80.75 105.875 C81.08 106.865 81.41 107.855 81.75 108.875 C81.75 107.885 81.75 106.895 81.75 105.875 C81.42 105.875 81.09 105.875 80.75 105.875 Z M63.75 106.875 C64.08 109.185 64.41 111.495 64.75 113.875 C66.4 113.215 68.05 112.555 69.75 111.875 C69.75 110.555 69.75 109.235 69.75 107.875 C66.78 107.38 66.78 107.38 63.75 106.875 Z M48.75 109.875 C49.36454696 113.86955527 51.45646737 116.61966336 53.75 119.875 C55.07 119.545 56.39 119.215 57.75 118.875 C57.09 115.575 56.43 112.275 55.75 108.875 C53.12886292 108.875 51.24064888 109.18792445 48.75 109.875 Z M-14.25 111.875 C-15.45561184 112.85767859 -15.45561184 112.85767859 -15.34765625 114.72265625 C-15.33605469 115.45355469 -15.32445313 116.18445313 -15.3125 116.9375 C-15.291875 118.236875 -15.27125 119.53625 -15.25 120.875 C-14.26 121.37 -14.26 121.37 -13.25 121.875 C-13.25 118.575 -13.25 115.275 -13.25 111.875 C-13.58 111.875 -13.91 111.875 -14.25 111.875 Z M42.75 111.875 C42.75 116.07065574 43.4789811 117.90586031 45.25 121.625 C45.7140625 122.60984375 46.178125 123.5946875 46.65625 124.609375 C47.0171875 125.35703125 47.378125 126.1046875 47.75 126.875 C48.41 126.215 49.07 125.555 49.75 124.875 C49.36162728 121.57030126 47.82449055 118.97923994 46.1875 116.125 C45.73246094 115.32578125 45.27742188 114.5265625 44.80859375 113.703125 C44.45925781 113.09984375 44.10992187 112.4965625 43.75 111.875 C43.42 111.875 43.09 111.875 42.75 111.875 Z M67.5625 114.5 C65.38222468 116.81040324 65.38222468 116.81040324 66 120.125 C66.2475 121.0325 66.495 121.94 66.75 122.875 C65.43 123.865 64.11 124.855 62.75 125.875 C65.1352733 126.00315365 65.1352733 126.00315365 67.75 124.875 C70.55979411 120.95206062 71.75 117.70745843 71.75 112.875 C69.56340984 112.67622533 69.56340984 112.67622533 67.5625 114.5 Z M56.75 120.875 C57.75 122.875 57.75 122.875 57.75 122.875 Z M59.75 125.875 C60.08 126.535 60.41 127.195 60.75 127.875 C62.4 127.875 64.05 127.875 65.75 127.875 C62.93490007 125.5976499 62.93490007 125.5976499 59.75 125.875 Z M-31.25 137.875 C-37.96975017 142.56223314 -42.59565124 148.4062009 -44.5625 156.4375 C-46.26700401 166.04172453 -44.6956107 174.31691347 -39.5625 182.625 C-35.06888182 188.9406574 -28.96187664 193.69835341 -21.296875 195.27734375 C-12.30572786 196.67631595 -4.66169876 195.01639856 2.7109375 189.63671875 C9.33881229 183.91033651 13.11137827 176.92416693 14.03125 168.2109375 C14.34370059 158.96760753 12.39601536 150.94193156 6.49609375 143.703125 C3.59229955 140.66291094 0.47165719 137.86390182 -3.25 135.875 C-4.57 135.875 -5.89 135.875 -7.25 135.875 C-7.98357574 147.04373425 -7.98357574 147.04373425 -4.625 157.25 C-2.43157002 161.43745723 -3.05010228 165.39194655 -4.25 169.875 C-6.65685541 173.24459758 -8.23630315 174.52240979 -12.125 175.875 C-16.18344247 175.875 -18.72019361 174.84354587 -22.25 172.875 C-24.73540943 169.95734545 -24.6025476 166.59177377 -24.51171875 162.83984375 C-23.99594895 158.96772125 -21.92981152 156.55481152 -19.25 153.875 C-18.97313935 151.84032566 -18.97313935 151.84032566 -19.0546875 149.5234375 C-19.06113281 148.67265625 -19.06757812 147.821875 -19.07421875 146.9453125 C-19.09097656 146.05585938 -19.10773438 145.16640625 -19.125 144.25 C-19.13402344 143.3528125 -19.14304687 142.455625 -19.15234375 141.53125 C-19.1759503 139.31223414 -19.2088769 137.09374923 -19.25 134.875 C-24.31130998 133.43482188 -26.89491474 135.17549958 -31.25 137.875 Z M-15.25 134.875 C-14.92 140.815 -14.59 146.755 -14.25 152.875 C-13.59 152.875 -12.93 152.875 -12.25 152.875 C-12.58 146.935 -12.91 140.995 -13.25 134.875 C-13.91 134.875 -14.57 134.875 -15.25 134.875 Z M50.75 134.875 C51.08 135.535 51.41 136.195 51.75 136.875 C53.07 136.545 54.39 136.215 55.75 135.875 C55.75 135.545 55.75 135.215 55.75 134.875 C54.1 134.875 52.45 134.875 50.75 134.875 Z M107.75 137.875 C105.54002678 138.87023964 103.44310875 139.91735785 101.3125 141.0625 C95.91741135 143.88779879 90.59708843 146.14714197 84.76171875 147.953125 C84.09785156 148.25734375 83.43398437 148.5615625 82.75 148.875 C82.42 149.865 82.09 150.855 81.75 151.875 C79.42682587 153.17888148 77.16423121 154.3325615 74.75 155.4375 C69.99149856 157.28538751 69.99149856 157.28538751 66.75 160.875 C79.1286606 161.51527555 91.24384703 159.24739161 100.75 150.875 C104.10765309 147.13396398 106.96833322 143.05780265 109.75 138.875 C109.09 138.545 108.43 138.215 107.75 137.875 Z M-20.75 158.0625 C-22.66965072 160.38207796 -23.03599565 161.87893913 -23.25 164.875 C-22.27989757 168.27035851 -21.1548324 170.80011972 -18.25 172.875 C-14.71931836 173.94955528 -12.94001617 174.15727934 -9.5 172.75 C-6.95127488 170.6260624 -6.18520688 169.02069587 -5.25 165.875 C-6.57 166.205 -7.89 166.535 -9.25 166.875 C-9.25 167.535 -9.25 168.195 -9.25 168.875 C-17.125 168 -17.125 168 -18.25 166.875 C-18.32205511 165.18891034 -18.33386068 163.49999341 -18.3125 161.8125 C-18.30347656 160.89339844 -18.29445313 159.97429687 -18.28515625 159.02734375 C-18.27355469 158.31707031 -18.26195312 157.60679687 -18.25 156.875 C-19.43818461 156.77154951 -19.43818461 156.77154951 -20.75 158.0625 Z M-14.25 156.875 C-14.25 157.535 -14.25 158.195 -14.25 158.875 C-13.59 158.875 -12.93 158.875 -12.25 158.875 C-12.25 158.215 -12.25 157.555 -12.25 156.875 C-12.91 156.875 -13.57 156.875 -14.25 156.875 Z " fill="#000000" transform="translate(105.25,33.125)"/>
<path d="M0 0 C0.33 0.66 0.66 1.32 1 2 C-2.63 2 -6.26 2 -10 2 C-6.00889681 0.0044484 -4.30013434 -0.19546065 0 0 Z " fill="#000000" transform="translate(269,134)"/>
<path d="M0 0 C0 0.66 0 1.32 0 2 C-0.79664063 2.03738281 -1.59328125 2.07476562 -2.4140625 2.11328125 C-8.35878857 2.48211462 -12.75429726 2.9630142 -18 6 C-18.66 5.67 -19.32 5.34 -20 5 C-13.01613678 0.75490667 -8.12410887 -0.13769676 0 0 Z " fill="#000000" transform="translate(272,139)"/>
<path d="M0 0 C1.07765625 0.00902344 2.1553125 0.01804688 3.265625 0.02734375 C4.08546875 0.03894531 4.9053125 0.05054688 5.75 0.0625 C6.08 0.7225 6.41 1.3825 6.75 2.0625 C6.04875 2.05089844 5.3475 2.03929687 4.625 2.02734375 C-1.11113102 1.97278816 -6.57778253 2.20631623 -12.25 3.0625 C-8.68685008 -0.50064992 -4.85839412 -0.05280863 0 0 Z " fill="#000000" transform="translate(265.25,147.9375)"/>
<path d="M0 0 C-2.83895848 1.42917955 -5.68444737 2.83856501 -8.5625 4.1875 C-9.32691406 4.55230469 -10.09132812 4.91710937 -10.87890625 5.29296875 C-13 6 -13 6 -16 5 C-14.27656245 4.15488176 -12.54595947 3.32436646 -10.8125 2.5 C-9.36810547 1.80390625 -9.36810547 1.80390625 -7.89453125 1.09375 C-5.01077307 0.00407079 -3.04645139 -0.22277524 0 0 Z " fill="#000000" transform="translate(258,155)"/>
<path d="M0 0 C0.66 0.33 1.32 0.66 2 1 C-0.64 3.64 -3.28 6.28 -6 9 C-6 6 -6 6 -4.6875 4.39453125 C-4.130625 3.87246094 -3.57375 3.35039062 -3 2.8125 C-2.443125 2.28269531 -1.88625 1.75289062 -1.3125 1.20703125 C-0.6628125 0.60955078 -0.6628125 0.60955078 0 0 Z " fill="#000000" transform="translate(231,163)"/>
<path d="M0 0 C0.66 0.33 1.32 0.66 2 1 C-0.97 3.97 -3.94 6.94 -7 10 C-7 7 -7 7 -5.46875 5.17578125 C-4.8190625 4.56089844 -4.169375 3.94601563 -3.5 3.3125 C-2.8503125 2.68988281 -2.200625 2.06726563 -1.53125 1.42578125 C-0.77328125 0.72001953 -0.77328125 0.72001953 0 0 Z " fill="#000000" transform="translate(232,167)"/>
<path d="M0 0 C0 0.66 0 1.32 0 2 C-0.58378418 2.04487549 -1.16756836 2.08975098 -1.76904297 2.13598633 C-4.47205142 2.35025245 -7.17338952 2.58129749 -9.875 2.8125 C-10.7928125 2.88275391 -11.710625 2.95300781 -12.65625 3.02539062 C-27.25721549 4.31068688 -36.09672153 9.20021421 -46 20 C-46.33 20.66 -46.66 21.32 -47 22 C-46.34 22.33 -45.68 22.66 -45 23 C-54.56348849 31.35211328 -62.28375178 37.81784478 -75.57006836 38.23803711 C-85.75113746 38.60696025 -94.2752856 39.74984778 -101.75 47.3125 C-108.23763861 55.22625016 -113.95024181 65.26883381 -113.5390625 75.75390625 C-112.24107411 81.16219122 -109.35252825 85.04872811 -105.625 89.0625 C-104.8309375 89.92101562 -104.036875 90.77953125 -103.21875 91.6640625 C-100.85158348 94.15625542 -98.46635221 96.60618756 -96 99 C-95 100 -94 101 -93 102 C-93.33 102.66 -93.66 103.32 -94 104 C-114.62415061 86.62305609 -114.62415061 86.62305609 -116.3359375 75.89453125 C-116.55987624 63.95859633 -109.46952896 52.1287008 -101.62109375 43.46484375 C-95.29554012 37.74898203 -86.92643269 36.31699106 -78.70703125 35.61328125 C-63.08177707 34.25801309 -57.32255356 30.08825351 -47 18 C-46.38125 17.2471875 -45.7625 16.494375 -45.125 15.71875 C-37.19255722 6.17043925 -27.66033732 1.39217395 -15.29296875 0.1171875 C-10.19897337 -0.14315298 -5.09844517 -0.06994818 0 0 Z " fill="#000000" transform="translate(272,167)"/>
<path d="M0 0 C8.42244226 -1.00622098 15.02343816 1.18705544 22 6 C23.34375 8.203125 23.34375 8.203125 24 10 C23.34773438 9.59007812 22.69546875 9.18015625 22.0234375 8.7578125 C14.63458509 4.20244331 8.60722521 1.89040261 0 1 C0 0.67 0 0.34 0 0 Z " fill="#000000" transform="translate(248,179)"/>
<path d="M0 0 C2.625 2.125 2.625 2.125 4 4 C3.443125 3.7834375 2.88625 3.566875 2.3125 3.34375 C-5.18285688 0.58726338 -5.18285688 0.58726338 -13 1 C-19.65258665 4.35036202 -25.62647005 8.86529361 -31 14 C-31 14.66 -31 15.32 -31 16 C-42.45906827 22.66802065 -53.69698074 28.79090942 -66.38769531 32.76782227 C-75.75825151 35.57677787 -75.75825151 35.57677787 -82.4375 42.25 C-84.46145414 46.28922177 -84.43918439 49.53495873 -84 54 C-83.13734032 56.40557853 -83.13734032 56.40557853 -82 58 C-82.99 58.495 -82.99 58.495 -84 59 C-78.89581184 65.67734011 -78.89581184 65.67734011 -72 70 C-69.32782226 69.90381833 -66.75314723 69.62547488 -64.109375 69.2265625 C-63.06523437 69.11441406 -63.06523437 69.11441406 -62 69 C-61.505 69.495 -61.505 69.495 -61 70 C-59.515 69.505 -59.515 69.505 -58 69 C-50.91222873 68.34717896 -44.745298 68.21398198 -38.3125 71.5 C-32.77160258 74.32732009 -28.15535347 75.37084291 -22 74 C-13.68191076 70.07879873 -7.25667349 62.56326184 -1 56 C-0.67 55.67 -0.34 55.34 0 55 C-4.09107699 57.60013426 -4.09107699 57.60013426 -7.75 60.75 C-8.1625 61.1625 -8.575 61.575 -9 62 C-9.66 62 -10.32 62 -11 62 C-11 61.34 -11 60.68 -11 60 C-3.89085806 53.7795008 4.5442794 50.04314795 13 46 C12.23291016 49.80810547 12.23291016 49.80810547 10.13671875 51.53515625 C9.32847656 52.03917969 8.52023437 52.54320312 7.6875 53.0625 C3.398221 55.91588303 -0.37309599 58.99488472 -4.125 62.5 C-4.63208496 62.97244141 -5.13916992 63.44488281 -5.66162109 63.93164062 C-7.10985155 65.28551312 -8.55499182 66.64268886 -10 68 C-16.13763512 73.69126166 -20.38550858 77.57583713 -29.21484375 77.47265625 C-32.86925835 76.8524821 -36.06740821 75.41872497 -39.4375 73.9375 C-46.51479283 70.83704736 -51.56016947 70.50048937 -58.94140625 72.53515625 C-64.84919621 73.86917334 -70.99153585 74.06446352 -76.3125 70.9375 C-81.83962123 66.87444169 -85.8499498 62.87156793 -87.5 56.0625 C-88.34155162 50.20707242 -87.89010084 45.84296159 -84.58203125 40.8671875 C-78.62685318 33.48113141 -71.08904855 30.85199139 -62.25 28.125 C-49.62673048 24.03449683 -40.10070275 18.64002813 -30 10 C-27.77264042 8.1579783 -25.51811193 6.35399155 -23.25 4.5625 C-21.71085937 3.32693359 -21.71085937 3.32693359 -20.140625 2.06640625 C-13.34766878 -2.40308858 -7.48963987 -2.60509213 0 0 Z " fill="#000000" transform="translate(259,187)"/>
<path d="M0 0 C4.2742558 1.5830577 6.26531794 4.50568404 9 8 C8.67 8.66 8.34 9.32 8 10 C6.66370254 8.52351062 5.33103329 7.0437367 4 5.5625 C3.2575 4.73878906 2.515 3.91507813 1.75 3.06640625 C0 1 0 1 0 0 Z " fill="#000000" transform="translate(263,191)"/>
<path d="M0 0 C0.89203125 0.00902344 1.7840625 0.01804688 2.703125 0.02734375 C3.37859375 0.03894531 4.0540625 0.05054688 4.75 0.0625 C4.75 0.3925 4.75 0.7225 4.75 1.0625 C-0.2 1.7225 -5.15 2.3825 -10.25 3.0625 C-9.25 1.0625 -9.25 1.0625 -7.515625 0.44140625 C-4.96855716 0.01543111 -2.58143831 -0.03396629 0 0 Z " fill="#000000" transform="translate(249.25,193.9375)"/>
<path d="M0 0 C-11.88 0.99 -11.88 0.99 -24 2 C-20.31230355 -1.68769645 -14.88162546 -1.27825354 -9.875 -1.6875 C-8.04582031 -1.84798828 -8.04582031 -1.84798828 -6.1796875 -2.01171875 C-3 -2 -3 -2 0 0 Z " fill="#000000" transform="translate(200,201)"/>
<path d="M0 0 C1 2 1 2 0.00390625 5.0390625 C-0.47175781 6.22242188 -0.94742188 7.40578125 -1.4375 8.625 C-1.91058594 9.81351563 -2.38367188 11.00203125 -2.87109375 12.2265625 C-3.24363281 13.14179688 -3.61617187 14.05703125 -4 15 C-5.25150676 11.24547973 -4.51651855 10.01214159 -3.125 6.375 C-2.75632813 5.39273438 -2.38765625 4.41046875 -2.0078125 3.3984375 C-1 1 -1 1 0 0 Z " fill="#000000" transform="translate(144,204)"/>
<path d="M0 0 C3.04639979 1.9276227 4.5931424 3.98190998 5.94921875 7.24609375 C6.73640925 11.27287594 6.76221661 14.80988301 4.7109375 18.43359375 C3.1856493 20.43198623 1.58181904 22.33516212 -0.05078125 24.24609375 C-1.08091402 25.89430619 -2.09788468 27.55205541 -3.05078125 29.24609375 C-1.40078125 29.57609375 0.24921875 29.90609375 1.94921875 30.24609375 C1.28921875 30.90609375 0.62921875 31.56609375 -0.05078125 32.24609375 C-3.67578125 31.87109375 -3.67578125 31.87109375 -7.05078125 31.24609375 C-7.38078125 33.22609375 -7.71078125 35.20609375 -8.05078125 37.24609375 C-6.07078125 37.24609375 -4.09078125 37.24609375 -2.05078125 37.24609375 C-2.38078125 37.90609375 -2.71078125 38.56609375 -3.05078125 39.24609375 C-5.42578125 39.37109375 -5.42578125 39.37109375 -8.05078125 39.24609375 C-8.71078125 38.58609375 -9.37078125 37.92609375 -10.05078125 37.24609375 C-9.7442608 34.30349745 -9.37806971 31.90067067 -8.05078125 29.24609375 C-7.39078125 29.24609375 -6.73078125 29.24609375 -6.05078125 29.24609375 C-5.76074219 28.19808594 -5.76074219 28.19808594 -5.46484375 27.12890625 C-5.07425781 25.76378906 -5.07425781 25.76378906 -4.67578125 24.37109375 C-4.42054688 23.46617187 -4.1653125 22.56125 -3.90234375 21.62890625 C-3.05078125 19.24609375 -3.05078125 19.24609375 -1.05078125 17.24609375 C-1.05078125 18.89609375 -1.05078125 20.54609375 -1.05078125 22.24609375 C2.61740893 17.51294513 3.75497167 14.26775328 3.94921875 8.24609375 C3.18084428 5.32627076 2.49315813 4.58605586 -0.05078125 2.99609375 C-7.7179435 1.07930319 -13.80534473 2.08126916 -20.921875 5.37109375 C-23.05078125 6.24609375 -23.05078125 6.24609375 -26.05078125 6.24609375 C-24.61620797 5.26264415 -23.17800719 4.28448454 -21.73828125 3.30859375 C-20.93777344 2.76332031 -20.13726562 2.21804687 -19.3125 1.65625 C-13.91141144 -1.71126808 -5.98380875 -2.19976207 0 0 Z " fill="#000000" transform="translate(250.05078125,205.75390625)"/>
<path d="M0 0 C0.66 0.33 1.32 0.66 2 1 C-1.96 3.64 -5.92 6.28 -10 9 C-10.66 8.67 -11.32 8.34 -12 8 C-10.37615858 6.85252535 -8.75088944 5.7070709 -7.125 4.5625 C-6.22007812 3.92441406 -5.31515625 3.28632813 -4.3828125 2.62890625 C-2 1 -2 1 0 0 Z " fill="#000000" transform="translate(219,221)"/>
<path d="M0 0 C1.42776575 2.85553151 0.2864731 4.68227272 -0.51953125 7.625 C-1.34940903 11.72716007 -1.15363304 15.83483756 -1 20 C-3.45996775 17.54003225 -3.29676247 16.76381446 -3.3125 13.375 C-3.23164798 8.31807341 -2.04369263 4.59830842 0 0 Z " fill="#000000" transform="translate(153,230)"/>
<path d="M0 0 C0.66 0.33 1.32 0.66 2 1 C1.401875 1.7425 0.80375 2.485 0.1875 3.25 C-1.58173222 5.47417764 -3.30860915 7.71662235 -5 10 C-4.49701212 5.59885603 -2.91227269 3.28804981 0 0 Z " fill="#000000" transform="translate(205,230)"/>
<path d="M0 0 C1.10464718 3.31394153 0.82254679 3.80057661 0 7 C-0.06743348 9.08234592 -0.08514472 11.16668557 -0.0625 13.25 C-0.05347656 14.32765625 -0.04445312 15.4053125 -0.03515625 16.515625 C-0.02355469 17.33546875 -0.01195312 18.1553125 0 19 C-2.83941649 14.74087527 -2.40297498 10.9984397 -2 6 C-1 2.375 -1 2.375 0 0 Z " fill="#000000" transform="translate(144,234)"/>
<path d="M0 0 C0 3 0 3 -1.25 4.5 C-5.60029517 8.22882443 -9.56968571 10.27373167 -15 12 C-15.928125 12.391875 -16.85625 12.78375 -17.8125 13.1875 C-20 14 -20 14 -23 14 C-20.63358721 11.21734523 -18.70083858 10.43139019 -15.1875 9.5625 C-8.85257087 7.79203946 -4.474347 4.81852754 0 0 Z " fill="#000000" transform="translate(120,235)"/>
<path d="M0 0 C5.94 0 11.88 0 18 0 C17.67 0.66 17.34 1.32 17 2 C11.06 2 5.12 2 -1 2 C-0.67 1.34 -0.34 0.68 0 0 Z " fill="#000000" transform="translate(209,243)"/>
<path d="M0 0 C0.66 0.33 1.32 0.66 2 1 C-5.23963731 7.13795337 -5.23963731 7.13795337 -11.125 7.0625 C-12.03507813 7.05347656 -12.94515625 7.04445313 -13.8828125 7.03515625 C-14.58148438 7.02355469 -15.28015625 7.01195312 -16 7 C-16 6.67 -16 6.34 -16 6 C-15.12988281 5.96132812 -15.12988281 5.96132812 -14.2421875 5.921875 C-8.23859586 5.48597066 -4.36043457 4.36043457 0 0 Z " fill="#000000" transform="translate(246,249)"/>
<path d="M0 0 C0.66 0.33 1.32 0.66 2 1 C-3.28 6.28 -8.56 11.56 -14 17 C-14.66 16.67 -15.32 16.34 -16 16 C-10.72 10.72 -5.44 5.44 0 0 Z " fill="#000000" transform="translate(257,249)"/>
<path d="M0 0 C0 0.99 0 1.98 0 3 C-1.72265625 4.359375 -1.72265625 4.359375 -4.0625 5.75 C-7.20687296 7.73849754 -9.86888553 9.68348531 -12.4375 12.375 C-15.21504164 15.26935413 -18.11337728 17.92025374 -21.1875 20.5 C-22.00605469 21.1909375 -22.82460937 21.881875 -23.66796875 22.59375 C-26 24 -26 24 -28.30078125 23.71875 C-28.86152344 23.4815625 -29.42226562 23.244375 -30 23 C-28.9275 22.236875 -27.855 21.47375 -26.75 20.6875 C-22.96199911 17.86992337 -19.54623305 14.74272441 -16.125 11.5 C-11.1729134 6.83021388 -6.05379718 3.17422551 0 0 Z " fill="#000000" transform="translate(271,248)"/>
<path d="M0 0 C0.33 0 0.66 0 1 0 C1.04898438 0.59167969 1.09796875 1.18335938 1.1484375 1.79296875 C1.56456867 6.19104472 2.04965595 9.96928897 4 14 C1.3225917 11.75443175 0.11298631 10.41718023 -0.8125 7 C-0.98025304 4.3159514 -0.87066586 2.51525694 0 0 Z " fill="#000000" transform="translate(129,250)"/>
<path d="M0 0 C0.33 0.66 0.66 1.32 1 2 C-1.1221675 7.04014781 -4.24069715 8.75014774 -9 11 C-9.66 10.67 -10.32 10.34 -11 10 C-10.37351563 9.52949219 -9.74703125 9.05898438 -9.1015625 8.57421875 C-8.28429688 7.95160156 -7.46703125 7.32898438 -6.625 6.6875 C-5.81289063 6.07261719 -5.00078125 5.45773437 -4.1640625 4.82421875 C-1.80220611 3.00519317 -1.80220611 3.00519317 0 0 Z " fill="#000000" transform="translate(61,261)"/>
<path d="M0 0 C2.46446682 0.82786944 4.65572814 1.85178521 7 3 C6.01 3.33 5.02 3.66 4 4 C3.34 3.67 2.68 3.34 2 3 C-0.0374763 2.77141886 -2.08040303 2.58975722 -4.125 2.4375 C-5.76855469 2.31181641 -5.76855469 2.31181641 -7.4453125 2.18359375 C-8.28835937 2.12300781 -9.13140625 2.06242187 -10 2 C-6.24171538 -0.50552308 -4.46348506 -0.37195709 0 0 Z " fill="#000000" transform="translate(213,263)"/>
<path d="M0 0 C4.95 0.33 9.9 0.66 15 1 C11.28424249 3.47717167 9.40013262 3.30345742 5 3 C2.0625 2 2.0625 2 0 1 C0 0.67 0 0.34 0 0 Z " fill="#000000" transform="translate(185,265)"/>
<path d="M0 0 C5.28 0.66 10.56 1.32 16 2 C16 2.33 16 2.66 16 3 C14.08404032 3.08133791 12.16708068 3.13934367 10.25 3.1875 C8.64898437 3.23970703 8.64898437 3.23970703 7.015625 3.29296875 C4 3 4 3 0 0 Z " fill="#000000" transform="translate(220,267)"/>
</svg>
